<?xml version="1.0" encoding="UTF-8"?>
<svg width="12px" height="9px" viewBox="0 0 12 9" version="1.1" xmlns="http://www.w3.org/2000/svg" xmlns:xlink="http://www.w3.org/1999/xlink">
    <!-- Generator: Sketch 51.2 (57519) - http://www.bohemiancoding.com/sketch -->
    <title>checked</title>
    <desc>Created with Sketch.</desc>
    <defs></defs>
    <g id="Page-1" stroke="none" stroke-width="1" fill="none" fill-rule="evenodd">
        <g id="Artboard-2.0" transform="translate(-753.000000, -396.000000)" fill="#9F7F32" fill-rule="nonzero" stroke="#9B7E3A">
            <g id="Group-2" transform="translate(335.000000, 173.000000)">
                <g id="Group-6" transform="translate(416.000000, 220.000000)">
                    <g id="checked" transform="translate(3.000000, 4.000000)">
                        <path d="M2.47292308,7.23830769 C2.52969231,7.32046154 2.62292308,7.36723077 2.72138462,7.36723077 C2.74184615,7.36723077 2.76276923,7.35969231 2.78353846,7.35553846 C2.79861538,7.358 2.81323077,7.36538462 2.82846154,7.36538462 C2.91692308,7.36538462 3.00292308,7.32707692 3.06323077,7.26061538 L9.75769231,0.565076923 C9.87846154,0.444461538 9.87846154,0.248769231 9.75769231,0.128 C9.63707692,0.00738461538 9.44138462,0.00738461538 9.32076923,0.128 L2.77923077,6.67046154 L0.573076923,4.46476923 C0.452461538,4.344 0.256769231,4.344 0.136153846,4.46476923 C0.0153846154,4.58538462 0.0153846154,4.78107692 0.136153846,4.90184615 L2.47292308,7.23830769 Z" id="Shape"></path>
                    </g>
                </g>
            </g>
        </g>
    </g>
</svg>