<?xml version="1.0" encoding="UTF-8"?>
<svg width="64px" height="11px" viewBox="0 0 64 11" version="1.1" xmlns="http://www.w3.org/2000/svg" xmlns:xlink="http://www.w3.org/1999/xlink">
    <!-- Generator: Sketch 56.2 (81672) - https://sketch.com -->
    <title>643g</title>
    <desc>Created with Sketch.</desc>
    <g id="Page-1" stroke="none" stroke-width="1" fill="none" fill-rule="evenodd">
        <g id="Desktop" transform="translate(-248.000000, -470.000000)" fill="#9C8578">
            <g id="643g" transform="translate(248.000000, 470.000000)">
                <path d="M34.2349187,5.11153119 C34.2349187,6.35886578 33.2238639,7.37028355 31.9765293,7.37028355 C30.7293157,7.37028355 29.7181399,6.35886578 29.7181399,5.11153119 C29.7181399,3.8641966 30.7293157,2.85277883 31.9765293,2.85277883 C33.2238639,2.85277883 34.2349187,3.8641966 34.2349187,5.11153119" id="Fill-35"></path>
                <path d="M53.5197278,7.00007561 C54.1210132,7.76831758 54.6128091,7.52514178 54.6128091,6.46049149 L54.6128091,3.7589414 C54.6128091,2.69429112 54.1383138,2.45595463 53.5583214,3.22903592 C52.9783289,4.0021172 51.6326352,4.63485822 50.5679849,4.63485822 L39.0766578,4.63485822 C38.0120076,4.63485822 36.6663138,4.0021172 36.0863214,3.22903592 C35.5063289,2.45595463 35.0317127,2.69429112 35.0317127,3.7589414 L35.0317127,6.46049149 C35.0317127,7.52514178 35.5236295,7.76831758 36.1249149,7.00007561 C36.7260794,6.23183365 38.0889527,5.60272212 39.153724,5.60272212 L50.4909187,5.60272212 C51.555569,5.60272212 52.9185633,6.23183365 53.5197278,7.00007561" id="Fill-36"></path>
                <path d="M59.740794,10.2230624 C59.740794,10.2230624 54.4894064,8.91644612 54.8559849,5.20468809 C58.7178828,5.98623819 59.7346238,9.71614367 59.740794,10.2230624" id="Fill-37"></path>
                <path d="M59.740794,-8.52651283e-14 C59.740794,-8.52651283e-14 54.4894064,1.30661626 54.8559849,5.01716446 C58.7178828,4.2368242 59.7346238,0.506918715 59.740794,-8.52651283e-14" id="Fill-38"></path>
                <path d="M60.4525369,3.85693762 C58.5193497,3.85693762 56.9521361,5.21678639 56.9521361,5.21678639 C56.9521361,5.21678639 58.5193497,6.57663516 60.4525369,6.57663516 C62.385966,6.57663516 63.9530586,5.21678639 63.9530586,5.21678639 C63.9530586,5.21678639 62.385966,3.85693762 60.4525369,3.85693762" id="Fill-39"></path>
                <path d="M10.4334518,7.00007561 C9.83216635,7.76831758 9.34024953,7.52514178 9.34024953,6.46049149 L9.34024953,3.7589414 C9.34024953,2.69429112 9.81486578,2.45595463 10.3948582,3.22903592 C10.9748507,4.0021172 12.3204234,4.63485822 13.3850737,4.63485822 L24.8765217,4.63485822 C25.941172,4.63485822 27.2868658,4.0021172 27.8668582,3.22903592 C28.4468507,2.45595463 28.9213459,2.69429112 28.9213459,3.7589414 L28.9213459,6.46049149 C28.9213459,7.52514178 28.4295501,7.76831758 27.8282647,7.00007561 C27.2271002,6.23183365 25.8641059,5.60272212 24.7994556,5.60272212 L13.4622609,5.60272212 C12.3974896,5.60272212 11.0346163,6.23183365 10.4334518,7.00007561" id="Fill-40"></path>
                <path d="M4.21226465,10.2230624 C4.21226465,10.2230624 9.46365217,8.91644612 9.09719471,5.20468809 C5.2351758,5.98623819 4.21843478,9.71614367 4.21226465,10.2230624" id="Fill-41"></path>
                <path d="M4.21226465,-8.52651283e-14 C4.21226465,-8.52651283e-14 9.46365217,1.30661626 9.09719471,5.01716446 C5.2351758,4.2368242 4.21843478,0.506918715 4.21226465,-8.52651283e-14" id="Fill-42"></path>
                <path d="M3.50052174,3.85693762 C5.43370888,3.85693762 7.0009225,5.21678639 7.0009225,5.21678639 C7.0009225,5.21678639 5.43370888,6.57663516 3.50052174,6.57663516 C1.56709263,6.57663516 0,5.21678639 0,5.21678639 C0,5.21678639 1.56709263,3.85693762 3.50052174,3.85693762" id="Fill-43"></path>
            </g>
        </g>
    </g>
</svg>