<?xml version="1.0" encoding="UTF-8"?>
<svg width="391px" height="213px" viewBox="0 0 391 213" version="1.1" xmlns="http://www.w3.org/2000/svg" xmlns:xlink="http://www.w3.org/1999/xlink">
    <!-- Generator: Sketch 56.2 (81672) - https://sketch.com -->
    <title>logo_white_text</title>
    <desc>Created with Sketch.</desc>
    <g id="Page-1" stroke="none" stroke-width="1" fill="none" fill-rule="evenodd">
        <g id="Desktop-HD" transform="translate(-482.000000, -408.000000)" fill="#FFFFFF">
            <g id="logo_white_text" transform="translate(482.000000, 408.000000)">
                <g id="Group">
                    <path d="M65.2,25.7 C64,22.1 63,18.6 62.3,15.1 C39.8,6 34.2,0.3 34.2,0.3 C34.2,0.3 26.1,6.7 45.7,17.8 C51.2,20.9 58,23.5 65.2,25.7 Z" id="Path"></path>
                    <path d="M71.1,39.4 C69.3,35.9 67.7,32.4 66.4,28.9 C45.5,23.1 39.7,18.7 39.7,18.7 C39.7,18.7 32.7,26.1 53.8,34.6 C58.9,36.6 64.8,38.2 71.1,39.4 L71.1,39.4 Z" id="Path"></path>
                    <path d="M78.6,51.9 C76.6,49 74.7,46.1 73.1,43.1 C53.8,39.8 48.2,36.5 48.2,36.5 C48.2,36.5 42.5,43.5 62.5,49.2 C67.3,50.5 72.8,51.4 78.6,51.9 L78.6,51.9 Z" id="Path"></path>
                    <path d="M81,55.3 C64.2,54.2 58.9,51.7 58.9,51.7 C58.9,51.7 54.9,58.9 73.7,62.2 C77.8,62.9 82.5,63.2 87.3,63.1 C85.1,60.6 83,58 81,55.3 Z" id="Path"></path>
                    <path d="M97,73.1 C94.6,70.9 92.2,68.5 89.9,66 C79.8,66 76,64.7 76,64.7 C76,64.7 74.5,71.8 90.9,73 C92.9,73.2 94.9,73.2 97,73.1 Z" id="Path"></path>
                    <path d="M106.5,80.9 C104.2,79.2 101.9,77.4 99.6,75.4 C92.6,75.8 89.8,75 89.8,75 C89.8,75 89.2,81.1 103.1,81.1 C104.2,81.1 105.3,81 106.5,80.9 L106.5,80.9 Z" id="Path"></path>
                    <path d="M110.2,83.6 C104.9,84.5 102.6,84.2 102.6,84.2 C102.6,84.2 102.9,89.3 114.5,87.9 C115.1,87.8 115.8,87.7 116.5,87.5 C114.4,86.3 112.3,85 110.2,83.6 L110.2,83.6 Z" id="Path"></path>
                    <path d="M116.3,90.8 C116.3,90.8 117.1,95.1 126.6,92.8 L126.7,92.7 C124.8,91.9 122.9,91 121,90 C117.7,90.9 116.3,90.8 116.3,90.8 L116.3,90.8 Z" id="Path"></path>
                    <path d="M126.9,96.1 C126.9,96.1 128,99.7 135.7,97.1 C136.2,96.9 136.6,96.7 137.1,96.5 C135.3,96 133.5,95.5 131.7,94.8 C128.4,96 126.9,96.1 126.9,96.1 Z" id="Path"></path>
                    <path d="M65.1,16.2 C65.9,19.6 67,23.1 68.3,26.6 C80.5,30 93.4,32.2 102.6,33.6 C102.4,32 102.3,30.4 102.3,28.9 C86.7,24.2 74.6,20 65.1,16.2 Z" id="Path"></path>
                    <path d="M69.5,29.8 C70.9,33.2 72.6,36.6 74.4,40 C84.5,41.7 95.2,42.5 104.2,42.9 C103.7,41 103.3,39 103,37.1 C89.2,34.6 78.2,32.1 69.5,29.8 L69.5,29.8 Z" id="Path"></path>
                    <path d="M76.5,43.7 C78.2,46.5 80,49.4 82,52.2 C90.6,52.7 99.4,52.6 107.1,52.3 C106.4,50.5 105.8,48.7 105.3,47 C93.6,46 84.1,44.9 76.5,43.7 Z" id="Path"></path>
                    <path d="M84.5,55.6 C86.5,58.1 88.6,60.6 90.8,63 C97.7,62.8 104.7,62 111.1,61 C110.2,59.3 109.4,57.6 108.6,55.9 C98.9,56.1 91,55.9 84.5,55.6 L84.5,55.6 Z" id="Path"></path>
                    <path d="M113,64.4 C105,65.4 98.6,65.9 93.5,66 C95.8,68.4 98.2,70.7 100.6,72.8 C105.9,72.3 111.3,71.1 116.4,69.8 C116,69.2 115.6,68.7 115.2,68.1 C114.4,66.9 113.7,65.7 113,64.4 L113,64.4 Z" id="Path"></path>
                    <path d="M103.3,75.1 C105.5,77 107.8,78.8 110.2,80.5 C114.2,79.8 118.3,78.7 122.3,77.4 C121,75.9 119.8,74.4 118.6,72.9 C112.3,74.1 107.3,74.8 103.3,75.1 L103.3,75.1 Z" id="Path"></path>
                    <path d="M124.6,79.9 C120.2,81.3 116.6,82.3 113.7,82.9 C115.7,84.3 117.8,85.5 119.9,86.7 C122.7,85.9 125.5,84.8 128.2,83.6 C127,82.4 125.8,81.2 124.6,79.9 Z" id="Path"></path>
                    <path d="M124.2,89.1 C126.1,90 128,90.9 129.9,91.7 C131.6,91 133.4,90.2 135.1,89.2 C133.9,88.3 132.6,87.4 131.4,86.3 C128.6,87.5 126.2,88.4 124.2,89.1 L124.2,89.1 Z" id="Path"></path>
                    <path d="M134.7,93.6 C136.4,94.2 138.2,94.7 139.9,95.2 C140.7,94.8 141.5,94.3 142.3,93.8 C141.1,93.1 139.9,92.4 138.7,91.7 C137.2,92.4 135.9,93.1 134.7,93.6 L134.7,93.6 Z" id="Path"></path>
                    <path d="M124.6,79.9 C125.8,81.2 127,82.4 128.2,83.6 C128.266667,83.5333333 128.3,83.5 128.3,83.5 C127,82.4 125.8,81.2 124.6,79.9 L124.6,79.9 Z" id="Path"></path>
                    <path d="M131.7,86.2 C131.6,86.3 131.5,86.3 131.4,86.3 C132.6,87.4 133.9,88.3 135.1,89.2 C135.3,89.1 135.6,89 135.8,88.9 C134.4,88.1 133,87.2 131.7,86.2 L131.7,86.2 Z" id="Path"></path>
                    <path d="M140,91 C139.5,91.2 139.1,91.4 138.7,91.7 C139.9,92.4 141.1,93.1 142.3,93.8 C142.9,93.4 143.5,93 144.1,92.6 C142.7,92.1 141.3,91.6 140,91 Z" id="Path"></path>
                    <path d="M260.9,25.7 C262.1,22.1 263,18.6 263.7,15.1 C286.3,6 291.8,0.3 291.8,0.3 C291.8,0.3 300,6.7 280.4,17.8 C274.9,20.9 268.1,23.5 260.9,25.7 L260.9,25.7 Z" id="Path"></path>
                    <path d="M255,39.4 C256.8,35.9 258.4,32.4 259.7,28.9 C280.5,23.1 286.3,18.7 286.3,18.7 C286.3,18.7 293.4,26.1 272.2,34.6 C267.2,36.6 261.3,38.2 255,39.4 Z" id="Path"></path>
                    <path d="M247.5,51.9 C249.5,49 251.3,46.1 253,43.1 C272.3,39.8 277.9,36.5 277.9,36.5 C277.9,36.5 283.6,43.5 263.5,49.2 C258.8,50.5 253.3,51.4 247.5,51.9 L247.5,51.9 Z" id="Path"></path>
                    <path d="M245,55.3 C261.9,54.2 267.2,51.7 267.2,51.7 C267.2,51.7 271.2,58.9 252.4,62.2 C248.2,62.9 243.6,63.2 238.8,63.1 C241,60.6 243.1,58 245,55.3 L245,55.3 Z" id="Path"></path>
                    <path d="M229,73.1 C231.5,70.9 233.8,68.5 236.1,66 C246.3,66 250,64.7 250,64.7 C250,64.7 251.5,71.8 235.2,73 C233.2,73.2 231.1,73.2 229,73.1 Z" id="Path"></path>
                    <path d="M219.6,80.9 C221.9,79.2 224.2,77.4 226.5,75.4 C233.5,75.8 236.2,75 236.2,75 C236.2,75 236.9,81.1 223,81.1 C221.9,81.1 220.7,81 219.6,80.9 L219.6,80.9 Z" id="Path"></path>
                    <path d="M215.9,83.6 C221.2,84.5 223.4,84.2 223.4,84.2 C223.4,84.2 223.2,89.3 211.6,87.9 C210.9,87.8 210.3,87.7 209.6,87.5 C211.7,86.3 213.8,85 215.9,83.6 L215.9,83.6 Z" id="Path"></path>
                    <path d="M209.7,90.8 C209.7,90.8 208.9,95.1 199.5,92.8 C199.433333,92.8 199.4,92.7666667 199.4,92.7 C201.3,91.9 203.2,91 205.1,90 C208.3,90.9 209.7,90.8 209.7,90.8 Z" id="Path"></path>
                    <path d="M199.2,96.1 C199.2,96.1 198.1,99.7 190.3,97.1 C189.9,96.9 189.4,96.7 188.9,96.5 C190.7,96 192.5,95.5 194.3,94.8 C197.7,96 199.2,96.1 199.2,96.1 Z" id="Path"></path>
                    <path d="M260.9,16.2 C260.1,19.6 259.1,23.1 257.8,26.6 C245.6,30 232.7,32.2 223.5,33.6 C223.7,32 223.8,30.4 223.8,28.9 C239.4,24.2 251.5,20 260.9,16.2 Z" id="Path"></path>
                    <path d="M256.5,29.8 C255.1,33.2 253.5,36.6 251.7,40 C241.5,41.7 230.9,42.5 221.9,42.9 C222.4,41 222.8,39 223.1,37.1 C236.9,34.6 247.9,32.1 256.5,29.8 L256.5,29.8 Z" id="Path"></path>
                    <path d="M249.6,43.7 C247.9,46.5 246,49.4 244,52.2 C235.5,52.7 226.6,52.6 219,52.3 C219.6,50.5 220.3,48.7 220.8,47 C232.5,46 242,44.9 249.6,43.7 Z" id="Path"></path>
                    <path d="M241.5,55.6 C239.6,58.1 237.5,60.6 235.3,63 C228.4,62.8 221.3,62 215,61 C215.9,59.3 216.7,57.6 217.5,55.9 C227.1,56.1 235.1,55.9 241.5,55.6 L241.5,55.6 Z" id="Path"></path>
                    <path d="M213.1,64.4 C221,65.4 227.4,65.9 232.6,66 C230.3,68.4 227.9,70.7 225.5,72.8 C220.2,72.3 214.7,71.1 209.7,69.8 C210.1,69.2 210.5,68.7 210.8,68.1 C211.6,66.9 212.4,65.7 213.1,64.4 L213.1,64.4 Z" id="Path"></path>
                    <path d="M222.8,75.1 C220.5,77 218.2,78.8 215.9,80.5 C211.9,79.8 207.7,78.7 203.8,77.4 C205.1,75.9 206.3,74.4 207.5,72.9 C213.7,74.1 218.8,74.8 222.8,75.1 L222.8,75.1 Z" id="Path"></path>
                    <path d="M201.5,79.9 C205.9,81.3 209.5,82.3 212.4,82.9 C210.4,84.3 208.3,85.5 206.2,86.7 C203.4,85.9 200.6,84.8 197.8,83.6 C199.1,82.4 200.3,81.2 201.5,79.9 Z" id="Path"></path>
                    <path d="M201.8,89.1 C200,90 198.1,90.9 196.2,91.7 C194.4,91 192.7,90.2 191,89.2 C192.2,88.3 193.4,87.4 194.6,86.3 C197.5,87.5 199.9,88.4 201.8,89.1 L201.8,89.1 Z" id="Path"></path>
                    <path d="M191.4,93.6 C189.6,94.2 187.9,94.7 186.2,95.2 C185.4,94.8 184.6,94.3 183.8,93.8 C185,93.1 186.2,92.4 187.4,91.7 C188.8,92.4 190.2,93.1 191.4,93.6 L191.4,93.6 Z" id="Path"></path>
                    <path d="M201.5,79.9 C200.3,81.2 199.1,82.4 197.8,83.6 C197.8,83.5333333 197.766667,83.5 197.7,83.5 C199,82.4 200.3,81.2 201.5,79.9 L201.5,79.9 Z" id="Path"></path>
                    <path d="M194.3,86.2 C194.4,86.3 194.5,86.3 194.6,86.3 C193.4,87.4 192.2,88.3 191,89.2 C190.7,89.1 190.5,89 190.3,88.9 C191.6,88.1 193,87.2 194.3,86.2 Z" id="Path"></path>
                    <path d="M186.1,91 C186.5,91.2 187,91.4 187.4,91.7 C186.2,92.4 185,93.1 183.8,93.8 C183.2,93.4 182.6,93 182,92.6 C183.4,92.1 184.8,91.6 186.1,91 Z" id="Path"></path>
                    <path d="M210.6,33.9 C207.1,37.2 206,41.9 204.8,47.4 C203.4,53.9 201.7,61.3 195.6,68.7 C184.6,81.9 169.6,86.6 169.4,86.7 C169.4,86.7 164.7,87.8 162,87.8 C160.1,87.8 155.4,86.3 155.4,86.3 C155.3,86.2 141.5,81.9 130.4,68.7 C124.3,61.3 122.7,53.9 121.3,47.4 C120,41.9 119,37.2 115.4,33.9 C113.4,32.1 106.9,29.7 104.2,29.3 L104.5,33.8 C108.4,34.4 111.4,36.4 112.1,37.1 C114.7,39.4 115.6,43.3 116.7,48.3 C118.1,55 120,63.2 126.7,71.3 C132.2,77.9 138.6,82.5 143.9,85.6 C161.6,116.1 161.4,210.4 161.4,211.4 L161.3,212.1 L164.6,212.1 L164.6,211.4 C162.3,135.7 176.8,97.1 181.9,85.8 C187.3,82.7 193.8,78 199.3,71.3 C206.1,63.2 207.9,55 209.4,48.3 C210.5,43.3 211.4,39.4 213.9,37.1 C214.7,36.4 217.7,34.4 221.6,33.8 L221.9,29.3 C219.2,29.7 212.7,32.1 210.6,33.9 Z" id="Path"></path>
                    <path d="M0.8,198.9 L0.8,135.2 L7.6,135.2 L19.3,165.1 C22,172 25.3,180.4 27.5,187.3 L27.6,187.3 C27.1,177.3 26.8,169 26.8,158 L26.8,135.2 L33.3,135.2 L33.3,198.9 L26.5,198.9 L14.4,168.3 C11.8,161.8 9,154.6 6.7,146.6 L6.6,146.6 C7.1,155.1 7.3,163.3 7.3,176.9 L7.3,198.9 L0.8,198.9 Z" id="Path"></path>
                    <polygon id="Path" points="52.9 198.9 45.6 198.9 45.6 135.2 52.9 135.2"></polygon>
                    <path d="M65.5,135.2 L72.6,135.2 L72.6,165.4 L72.8,165.4 C74.4,162.8 75.6,160.2 76.8,157.8 L88.7,135.2 L96.8,135.2 L81.2,162.4 L97.1,198.9 L89.3,198.9 L76.2,168.2 L72.6,174.3 L72.6,198.9 L65.5,198.9 L65.5,135.2 Z" id="Path"></path>
                    <path d="M126,174 L122.7,157.8 C121.7,153.2 120.9,147.9 120.1,143.2 L119.8,143.2 C119.1,148 118.1,153.5 117.2,157.8 L113.9,174 L126,174 Z M112.8,179.8 L108.7,198.9 L101.6,198.9 L116.1,135.2 L124.2,135.2 L138.4,198.9 L131.2,198.9 L127,179.8 L112.8,179.8 Z" id="Shape"></path>
                    <polygon id="Path" points="217.9 168.7 201.9 168.7 201.9 192.6 220.1 192.6 220.1 198.9 194.6 198.9 194.6 135.2 218.9 135.2 218.9 141.5 201.9 141.5 201.9 162.5 217.9 162.5"></polygon>
                    <path d="M227.6,190.5 C229.7,191.9 233.6,193.1 236.7,193.1 C243.4,193.1 247.4,188.7 247.4,182.3 C247.4,176.4 244,172.8 239,169 C233.9,165.5 227,159.6 227,151.3 C227,141.7 233.7,134.6 243.8,134.6 C247.8,134.6 251.2,135.8 252.7,137 L251,143.2 C249.4,142.1 246.7,141 243.4,141 C237.1,141 234.2,145.8 234.2,150.1 C234.2,156.5 237.5,158.9 243.5,163.3 C251.2,168.7 254.6,174.5 254.6,181.6 C254.6,192.6 246.9,199.5 236.7,199.5 C232.4,199.5 227.8,198.1 226,196.8 L227.6,190.5 Z" id="Path"></path>
                    <polygon id="Path" points="271.6 141.7 260 141.7 260 135.2 290.5 135.2 290.5 141.7 278.9 141.7 278.9 198.9 271.6 198.9"></polygon>
                    <path d="M315.1,174 L311.8,157.8 C310.8,153.2 310,147.9 309.2,143.2 L308.9,143.2 C308.2,148 307.2,153.5 306.3,157.8 L303,174 L315.1,174 Z M302,179.8 L297.8,198.9 L290.7,198.9 L305.3,135.2 L313.3,135.2 L327.5,198.9 L320.3,198.9 L316.1,179.8 L302,179.8 Z" id="Shape"></path>
                    <polygon id="Path" points="338.2 141.7 326.5 141.7 326.5 135.2 357.1 135.2 357.1 141.7 345.4 141.7 345.4 198.9 338.2 198.9"></polygon>
                    <polygon id="Path" points="388.4 168.7 372.4 168.7 372.4 192.6 390.6 192.6 390.6 198.9 365.1 198.9 365.1 135.2 389.4 135.2 389.4 141.5 372.4 141.5 372.4 162.5 388.4 162.5"></polygon>
                </g>
            </g>
        </g>
    </g>
</svg>